<?xml version="1.0" encoding="iso-8859-1"?>
<!-- Generator: Adobe Illustrator 19.0.0, SVG Export Plug-In . SVG Version: 6.00 Build 0)  -->
<svg version="1.1" id="Capa_1" xmlns="http://www.w3.org/2000/svg" xmlns:xlink="http://www.w3.org/1999/xlink" x="0px" y="0px"
	 viewBox="0 0 479.81 479.81" style="enable-background:new 0 0 479.81 479.81;" xml:space="preserve">
<g>
	<g>
		<path d="M475.136,291.051l-42.496-37.888l-65.024-89.088c-3.072-4.096-7.68-6.144-12.288-6.144h-33.792l-12.288-39.936
			c-2.048-6.656-7.68-11.264-14.848-11.264H256c-7.168,0-13.824,5.12-14.848,12.288l-7.68,38.912H17.92
			c-8.704,0-15.36,6.656-15.36,15.36L0,389.867c0,8.704,6.656,15.36,15.36,15.36h39.936c8.192,32.256,40.448,52.224,73.216,44.544
			c22.016-5.12,38.912-22.528,44.544-44.544h109.056c8.192,32.256,40.448,52.224,73.216,44.544
			c22.016-5.12,38.912-22.528,44.544-44.544h64.512c8.704,0,15.36-6.656,15.36-15.36v-87.552
			C480.256,297.707,477.696,293.611,475.136,291.051z M114.176,420.587c-16.384,0-29.696-13.312-29.696-29.696
			s13.312-29.696,29.696-29.696c16.384,0,29.696,13.312,29.696,29.696S130.56,420.587,114.176,420.587z M189.44,280.811h-16.384
			v16.384c0,8.704-6.656,15.36-15.36,15.36c-8.704,0-15.36-6.656-15.36-15.36v-16.384h-16.384c-8.704,0-15.36-6.656-15.36-15.36
			c0-8.704,6.656-15.36,15.36-15.36h16.384v-16.384c0-8.704,6.656-15.36,15.36-15.36c8.704,0,15.36,6.656,15.36,15.36v16.384h16.384
			c8.704,0,15.36,6.656,15.36,15.36C204.8,274.155,197.632,280.811,189.44,280.811z M340.48,420.587
			c-16.384,0-29.696-13.312-29.696-29.696s13.312-29.696,29.696-29.696s29.696,13.312,29.696,29.696S357.376,420.587,340.48,420.587
			z M291.84,248.043v-59.392h55.296l43.52,59.392H291.84z"/>
	</g>
</g>
<g>
	<g>
		<rect x="260.096" y="28.395" width="30.72" height="64"/>
	</g>
</g>
<g>
	<g>
		<rect x="312.168" y="69.279" transform="matrix(0.7071 -0.7071 0.7071 0.7071 41.2556 268.8772)" width="66.047" height="30.72"/>
	</g>
</g>
<g>
	<g>
		<rect x="191.375" y="51.76" transform="matrix(0.7071 -0.7071 0.7071 0.7071 0.6 171.0156)" width="30.72" height="66.047"/>
	</g>
</g>
<g>
</g>
<g>
</g>
<g>
</g>
<g>
</g>
<g>
</g>
<g>
</g>
<g>
</g>
<g>
</g>
<g>
</g>
<g>
</g>
<g>
</g>
<g>
</g>
<g>
</g>
<g>
</g>
<g>
</g>
</svg>
