<svg id="Layer_1" enable-background="new 0 0 512 512" height="512" viewBox="0 0 512 512" width="512" xmlns="http://www.w3.org/2000/svg"><path clip-rule="evenodd" d="m205.195 14.831c53.342 0 96.585 43.243 96.585 96.586 0 53.342-43.243 96.585-96.585 96.585s-96.585-43.243-96.585-96.585c0-53.343 43.243-96.586 96.585-96.586zm93.532 355.527h39.137v-22.131c0-10.154 8.278-18.433 18.433-18.433h66.205c10.155 0 18.432 8.278 18.432 18.433v22.131h39.137c8.357 0 15.194 6.837 15.194 15.194v96.423c0 8.357-6.837 15.194-15.194 15.194h-181.344c-8.357 0-15.194-6.837-15.194-15.194v-96.423c0-8.357 6.837-15.194 15.194-15.194zm55.137 0h71.071v-22.131c0-1.322-1.111-2.433-2.433-2.433h-66.205c-1.322 0-2.433 1.111-2.433 2.433zm22.299 32.762v17.407h-17.407v26.473h17.407v17.407h26.473v-17.407h17.407v-26.473h-17.407v-17.407zm-349.423-14.643 240.793-.001v-2.924c0-17.188 14.007-31.194 31.194-31.194h23.137v-6.131c0-18.985 15.448-34.432 34.432-34.432h14.522c-17.862-30.999-44.176-56.508-75.794-73.388-.093 2.775-.279 5.508-.546 8.174-.954 9.534-2.934 18.323-5.258 25.261 11.188 7.831 12.685 21.897 8.547 34.074l-16.188 47.629c-1.502 4.434-6.657 8.214-11.027 9.385-4.086 1.095-8.596.67-12.596-1.522-2.4 3.15-6.826 4.098-10.343 2.061-3.814-2.209-5.115-7.092-2.906-10.906l6.936-12.014c2.209-3.814 7.092-5.115 10.906-2.906 3.482 2.017 4.87 6.263 3.403 9.889.296.033.634-.053.879-.223l15.811-46.518c1.802-5.303 2.398-12.792-3.031-16.211-2.685-1.386-5.526-3.192-8.17-4.724-5.745-3.296-12.079.959-15.872 5.288l-32.373 36.942c-.035.314.055.66.253.907 2.402-3.074 6.76-3.994 10.24-1.994 3.814 2.192 5.129 7.061 2.938 10.875l-6.936 12.014c-2.192 3.814-7.061 5.129-10.875 2.938-3.513-2.019-4.906-6.309-3.391-9.954-3.899-2.365-6.526-6.072-7.626-10.181-1.185-4.424-.48-10.656 2.621-14.21l33.149-37.837c7.802-8.904 19.615-14.726 31.392-10.63 1.598-5.389 2.934-11.916 3.642-18.995.459-4.587.651-9.374.476-14.196-22.728-9.543-47.69-14.821-73.886-14.821-22.63 0-44.338 3.942-64.48 11.168-11.32 15.749-15.057 42.566-14.006 61.809 18.137.361 32.739 15.185 32.739 33.408 0 18.45-14.967 33.417-33.417 33.417s-33.417-14.967-33.417-33.417c0-13.041 7.478-24.34 18.377-29.845-1.371-18.246.855-38.315 7.141-55.577-52.574 26.972-91.013 77.6-101.25 137.836-1.043 6.14 3.633 11.676 9.86 11.676zm99.29-81.507c9.619 0 17.417 7.798 17.417 17.417s-7.798 17.417-17.417 17.417-17.417-7.798-17.417-17.417c0-9.62 7.798-17.417 17.417-17.417z" fill-rule="evenodd"/></svg>