<?xml version="1.0" encoding="iso-8859-1"?>
<!-- Generator: Adobe Illustrator 19.0.0, SVG Export Plug-In . SVG Version: 6.00 Build 0)  -->
<svg version="1.1" id="Layer_1" xmlns="http://www.w3.org/2000/svg" xmlns:xlink="http://www.w3.org/1999/xlink" x="0px" y="0px"
	 viewBox="0 0 512 512" style="enable-background:new 0 0 512 512;" xml:space="preserve">
<g>
	<g>
		<rect x="241" y="121" width="30" height="30"/>
	</g>
</g>
<g>
	<g>
		<rect x="241" y="181" width="30" height="30"/>
	</g>
</g>
<g>
	<g>
		<path d="M241,301c0,16.276,0,27.36,0,45c0,8.262,6.738,15,15,15c8.262,0,15-6.738,15-15c0-17.64,0-28.724,0-45H241z"/>
	</g>
</g>
<g>
	<g>
		<path d="M361,91h-60v30h45c15.555,0,29.619,6.104,40.292,15.853c2.946-4.7,4.708-10.102,4.708-15.853
			C391,104.447,377.553,91,361,91z"/>
	</g>
</g>
<g>
	<g>
		<path d="M256,61c-8.262,0-15,6.738-15,15v15h30V76C271,67.738,264.262,61,256,61z"/>
	</g>
</g>
<g>
	<g>
		<rect x="241" y="241" width="30" height="30"/>
	</g>
</g>
<g>
	<g>
		<path d="M467,1L45,0C20.186,0,0,20.186,0,45v422c0,24.814,20.186,45,45,45h422c24.814,0,45-20.186,45-46V45
			C512,21.186,491.814,1,467,1z M406,181c0,16.258-6.654,31.294-17.928,42.442C389.799,229.032,391,234.851,391,241
			c0,33.076-26.924,60-60,60c-8.291,0-15-6.709-15-15c0-8.291,6.709-15,15-15c16.553,0,30-13.447,30-30c0-16.553-13.447-30-30-30
			h-30v120h45c24.814,0,45,20.186,45,45c0,20.596-14.297,38.35-34.775,43.213c-26.629,7.136-49.025,23.079-63.955,43.418
			C282.514,474.525,269.477,481,256,481c-14.15,0-27.246-6.885-35.977-18.896c-16.055-21.006-39.082-36.152-64.658-42.393
			C134.594,413.822,121,396.332,121,376c0-24.814,20.186-45,45-45h45V211h-30c-16.553,0-30,13.447-30,30s13.447,30,30,30
			c8.291,0,15,6.709,15,15c0,8.291-6.709,15-15,15c-33.076,0-60-26.924-60-60c0-6.149,1.199-11.968,2.928-17.558
			C112.654,212.296,106,197.258,106,181c0-6.149,1.199-11.968,2.928-17.558C97.654,152.296,91,137.258,91,121
			c0-33.076,26.924-60,60-60h62.763C219.976,43.577,236.47,31,256,31c19.53,0,36.024,12.577,42.237,30H361c33.076,0,60,26.924,60,60
			c0,16.258-6.654,31.294-17.928,42.442C404.799,169.032,406,174.851,406,181z"/>
	</g>
</g>
<g>
	<g>
		<path d="M346,151h-45v30h30c15.555,0,29.619,6.104,40.292,15.853c2.946-4.7,4.708-10.102,4.708-15.853
			C376,164.447,362.553,151,346,151z"/>
	</g>
</g>
<g>
	<g>
		<path d="M346,361h-47.578c-6.182,17.461-22.852,30-42.422,30s-36.24-12.539-42.422-30H166c-8.262,0-15,6.738-15,15
			c0,7.822,6.035,13.037,12.012,14.707c31.67,7.705,60.645,26.748,81.064,53.467c1.992,2.724,5.86,6.826,11.924,6.826
			c6.123,0,10.488-4.248,12.568-6.768c18.655-25.409,47.104-45.284,80.332-54.111c6.24-1.465,12.1-6.357,12.1-14.121
			C361,367.738,354.262,361,346,361z"/>
	</g>
</g>
<g>
	<g>
		<path d="M151,91c-16.553,0-30,13.447-30,30c0,5.75,1.763,11.155,4.709,15.853C136.383,127.104,150.445,121,166,121h45V91H151z"/>
	</g>
</g>
<g>
	<g>
		<path d="M166,151c-16.553,0-30,13.447-30,30c0,5.75,1.763,11.155,4.709,15.853C151.383,187.104,165.445,181,181,181h30v-30H166z"
			/>
	</g>
</g>
<g>
</g>
<g>
</g>
<g>
</g>
<g>
</g>
<g>
</g>
<g>
</g>
<g>
</g>
<g>
</g>
<g>
</g>
<g>
</g>
<g>
</g>
<g>
</g>
<g>
</g>
<g>
</g>
<g>
</g>
</svg>
