<svg height="512" viewBox="0 0 96 96" width="512" xmlns="http://www.w3.org/2000/svg"><g id="Online_Doctor" data-name="Online Doctor"><path d="m82.46 91.93-2.33 1.24a13.85 13.85 0 0 1 -15.95-2.08l-10.74-10 20.76-22.31 20.8 19.34z" fill="#fb9c88"/><path d="m73.62 95.8a14.83 14.83 0 0 1 -10.12-4l-10.74-10a1 1 0 0 1 0-1.41l20.71-22.29a1 1 0 0 1 1.41-.05l20.8 19.34a1 1 0 1 1 -1.36 1.46l-20.07-18.66-19.4 20.86 10 9.31a12.86 12.86 0 0 0 14.8 1.93l2.35-1.24a1 1 0 0 1 .94 1.77c-3.08 1.63-5.25 2.98-9.32 2.98z" fill="#302d3d"/><rect fill="#52527b" height="83.43" rx="3.79" width="49.62" x="32.5" y="1.2"/><path d="m36.63 6.48a1.14 1.14 0 0 1 1.14-1.14h29.44a2.07 2.07 0 0 0 0-4.14h-30.92a3.79 3.79 0 0 0 -3.79 3.8v13.43a2.07 2.07 0 0 0 1.94 2.06 2.06 2.06 0 0 0 2.19-2.06z" fill="#5275b7"/><path d="m36.29 1.2a3.79 3.79 0 0 0 -3.79 3.8v4.38a2.07 2.07 0 1 0 4.13 0v-2.9a1.14 1.14 0 0 1 1.14-1.14h12.51a2.07 2.07 0 0 0 0-4.14z" fill="#5ca2da"/><path d="m78 79.35a1.14 1.14 0 0 1 -1.14 1.14h-25a2.07 2.07 0 1 0 0 4.14h26.47a3.79 3.79 0 0 0 3.79-3.79v-41.48a2.1 2.1 0 0 0 -1.07-1.82 2.08 2.08 0 0 0 -3.05 1.82z" fill="#393462"/><path d="m78.33 85.63h-42a4.8 4.8 0 0 1 -4.79-4.8v-75.83a4.8 4.8 0 0 1 4.75-4.8h42a4.8 4.8 0 0 1 4.83 4.8v75.83a4.8 4.8 0 0 1 -4.79 4.8zm-42.04-83.43a2.8 2.8 0 0 0 -2.79 2.8v75.83a2.81 2.81 0 0 0 2.79 2.8h42a2.8 2.8 0 0 0 2.79-2.8v-75.83a2.79 2.79 0 0 0 -2.75-2.8z" fill="#302d3d"/><rect fill="#a8d1ff" height="41.35" rx="1.14" transform="matrix(0 1 -1 0 100.23 -14.4)" width="75.16" x="19.74" y="22.24"/><path d="m75 12.27v29.78l-4.23 1.8a7.71 7.71 0 0 0 -4.51 5.55l-1.48 7.3a6.51 6.51 0 0 1 -6.37 5.21h-3.78a6.53 6.53 0 0 1 -4.06-1.42l-8.38-6.7a6.8 6.8 0 0 1 -2.55-5.3v-36a3.94 3.94 0 0 1 7.14-2.49 6.43 6.43 0 0 0 5.57 2.94h9.93a6.43 6.43 0 0 0 5.57-2.94 3.94 3.94 0 0 1 7.15 2.27z" fill="#fff"/><path d="m78.08 70v9.33a1.14 1.14 0 0 1 -1.15 1.14h-39.15a1.14 1.14 0 0 1 -1.14-1.14v-6.33l2.42-12.9a15.22 15.22 0 0 1 14.76-12.32h7.72a15.55 15.55 0 0 1 13.19 7.81c1.5 2.72 1.51 4.13 3.35 14.41z" fill="#e6e7e8"/><path d="m47.06 75.49a4.63 4.63 0 0 1 -4.56-5.36l1.5-9.13a9.42 9.42 0 0 1 4.33-6.47l.61-.39a9.41 9.41 0 0 1 4.9-1.38h7.72a9.44 9.44 0 0 1 4.95 1.41 10 10 0 0 1 3.85 3.83 9.12 9.12 0 0 1 1 2.92l1.64 9.14a4.61 4.61 0 0 1 -4.54 5.43z" fill="#fff"/><path d="m76.93 81.49h-39.15a2.14 2.14 0 0 1 -2.14-2.14c0-6.9 0-6.36 0-6.49 2.62-14 2.54-14.93 4.11-17.76a16.53 16.53 0 0 1 14-8.32h7.72a16.17 16.17 0 0 1 15.82 13.15c1.89 10.59 1.79 9.95 1.79 10.09v9.33a2.14 2.14 0 0 1 -2.15 2.14zm-39.29-8.35v6.21a.14.14 0 0 0 .14.14c41.94 0 39.3.07 39.3-.14v-9.24l-1.76-9.84a13.34 13.34 0 0 0 -6.16-9.12 13.51 13.51 0 0 0 -7.62-2.37h-7.72a13.38 13.38 0 0 0 -7 2 13.76 13.76 0 0 0 -5.25 5.28c-1.37 2.37-1.24 2.72-3.93 17.08z" fill="#302d3d"/><path d="m53.44 48.15 4.24 15.3 4.25-15.3z" fill="#a8d1ff"/><path d="m56.72 63.72-4.25-15.31a1 1 0 0 1 1-1.26h8.49a1 1 0 0 1 1 1.26l-4.31 15.31a1 1 0 0 1 -1.93 0zm-2-14.57 2.93 10.56 2.94-10.56z" fill="#302d3d"/><path d="m61.93 48.15a5.2 5.2 0 0 1 -8.49 0v-6.15h8.49z" fill="#fb9c88"/><path d="m52.62 48.72c-.26-.37-.18-.14-.18-6.71a1 1 0 0 1 1-1h8.49a1 1 0 0 1 1 1c0 6.57.08 6.34-.18 6.71a6.19 6.19 0 0 1 -10.13 0zm1.82-.91a4.19 4.19 0 0 0 6.49 0v-4.81h-6.49z" fill="#302d3d"/><path d="m44.71 13.21h11.55a6.33 6.33 0 0 1 6.33 6.33v9.82a0 0 0 0 1 0 0h-15a2.89 2.89 0 0 1 -2.89-2.89v-13.26a0 0 0 0 1 .01 0z" fill="#52527b"/><path d="m62.6 30.37h-15a3.89 3.89 0 0 1 -3.89-3.89v-13.27a1 1 0 0 1 1-1h11.55a7.34 7.34 0 0 1 7.34 7.34v9.82a1 1 0 0 1 -1 1zm-16.89-16.16v12.27a1.89 1.89 0 0 0 1.89 1.89h14v-8.82a5.35 5.35 0 0 0 -5.34-5.34z" fill="#302d3d"/><path d="m70.78 29.37h-6.06a2.13 2.13 0 0 1 -2.12-2.13v-10.15a3.88 3.88 0 0 1 3.87-3.88 4.31 4.31 0 0 1 4.31 4.31z" fill="#52527b"/><path d="m70.78 30.37h-6.06a3.13 3.13 0 0 1 -3.12-3.13v-10.15a4.88 4.88 0 0 1 4.87-4.88 5.31 5.31 0 0 1 5.31 5.31v11.85a1 1 0 0 1 -1 1zm-4.31-16.16a2.88 2.88 0 0 0 -2.87 2.88v10.15a1.13 1.13 0 0 0 1.12 1.13h5.06v-10.85a3.31 3.31 0 0 0 -3.31-3.31z" fill="#302d3d"/><rect fill="#fb9c88" height="4.59" rx="2.29" width="29.6" x="42.88" y="29.77"/><path d="m70.19 35.36h-25a3.3 3.3 0 0 1 0-6.59h25a3.3 3.3 0 0 1 0 6.59zm-25-4.59a1.3 1.3 0 0 0 0 2.59h25a1.3 1.3 0 0 0 0-2.59z" fill="#302d3d"/><path d="m68.34 28.92v4.94a10.66 10.66 0 0 1 -21.32 0v-4.94a10.66 10.66 0 0 1 21.32 0z" fill="#fb9c88"/><path d="m68.34 32.65v1.21a10.66 10.66 0 0 1 -21.32 0v-1.21a10.66 10.66 0 0 1 21.32 0z" fill="#fbc4ab"/><path d="m57.71 45.5a11.65 11.65 0 0 1 -11.71-11.64v-4.94a11.66 11.66 0 0 1 23.32 0v4.94a11.65 11.65 0 0 1 -11.61 11.64zm0-26.21a9.66 9.66 0 0 0 -9.71 9.63v4.94a9.66 9.66 0 0 0 19.32 0v-4.94a9.64 9.64 0 0 0 -9.61-9.63z" fill="#302d3d"/><path d="m60.48 38.49a4.26 4.26 0 0 1 -5.6 0" fill="#fff"/><path d="m54.23 39.24a1 1 0 1 1 1.31-1.51 3.35 3.35 0 0 0 4.29 0 1 1 0 0 1 1.41.09 1 1 0 0 1 -.1 1.42 5.26 5.26 0 0 1 -6.91 0z" fill="#302d3d"/><path d="m61.9 32.66a1 1 0 0 1 -1-1v-.47a1 1 0 0 1 2 0v.47a1 1 0 0 1 -1 1z" fill="#302d3d"/><path d="m63 29.64h-2.17a1 1 0 0 1 0-2h2.17a1 1 0 1 1 0 2z" fill="#302d3d"/><path d="m53.46 32.66a1 1 0 0 1 -1-1v-.47a1 1 0 0 1 2 0v.47a1 1 0 0 1 -1 1z" fill="#302d3d"/><path d="m54.54 29.64h-2.15a1 1 0 0 1 0-2h2.15a1 1 0 1 1 0 2z" fill="#302d3d"/><path d="m54.43 17.11a5.93 5.93 0 0 1 0 8.36l-5.61-5.61" fill="#52527b"/><g fill="#302d3d"><path d="m53.72 26.17-5.61-5.6a1 1 0 0 1 0-1.41 1 1 0 0 1 1.42 0l4.82 4.84a4.9 4.9 0 0 0 -.63-6.16 1 1 0 1 1 1.41-1.41 6.89 6.89 0 0 1 0 9.76 1 1 0 0 1 -1.41-.02z"/><path d="m44.63 81.49a1 1 0 0 1 -1-1.15l2-13.51a1 1 0 1 1 2 .32c-.31 1.93 0-.34-2 13.49a1 1 0 0 1 -1 .85z"/><path d="m48.42 56.8a1 1 0 0 1 -1-1 10.22 10.22 0 0 1 5.58-9.12 1 1 0 1 1 .91 1.77 8.25 8.25 0 0 0 -4.47 7.35 1 1 0 0 1 -1.02 1z"/><path d="m67 56.8a1 1 0 0 1 -1-1 8.24 8.24 0 0 0 -4.5-7.36 1 1 0 1 1 .91-1.78 10.23 10.23 0 0 1 5.59 9.14 1 1 0 0 1 -1 1z"/><path d="m69.54 60.45a1 1 0 0 1 -1-1v-2.21a.44.44 0 0 0 -.44-.44h-2.3a.44.44 0 0 0 -.44.44v2.21a1 1 0 0 1 -2 0v-2.21a2.44 2.44 0 0 1 2.44-2.44h2.3a2.45 2.45 0 0 1 2.44 2.44v2.21a1 1 0 0 1 -1 1z"/><path d="m48.42 61.63a3.42 3.42 0 1 1 3.41-3.41 3.42 3.42 0 0 1 -3.41 3.41zm0-4.83a1.42 1.42 0 1 0 1.41 1.42 1.42 1.42 0 0 0 -1.41-1.42z"/><path d="m76.85 81.49h-39.07a2.14 2.14 0 0 1 -2.14-2.14v-72.87a2.14 2.14 0 0 1 2.14-2.14h39.07a2.14 2.14 0 0 1 2.15 2.14v72.87a2.14 2.14 0 0 1 -2.15 2.14zm-39.07-75.15c-.22 0-.14-3.09-.14 73 0 .22-2.52.14 39.21.14.22 0 .14 3 .14-73 .01-.22 2.55-.14-39.21-.14z"/></g><path d="m62.28 9.92h-9.93a3.93 3.93 0 0 1 -3.46-2.09l-1.31-2.49h19.47l-1.31 2.49a3.93 3.93 0 0 1 -3.46 2.09z" fill="#52527b"/><path d="m62.27 10.92h-9.92a4.9 4.9 0 0 1 -4.35-2.62l-1.31-2.5a1 1 0 0 1 .89-1.46h19.47a1 1 0 0 1 .88 1.46l-1.31 2.5a4.91 4.91 0 0 1 -4.35 2.62zm-13-4.58.55 1a2.9 2.9 0 0 0 2.57 1.56h9.92a2.9 2.9 0 0 0 2.58-1.56l.54-1z" fill="#302d3d"/><path d="m77.79 89.14-1.17-1.55a19.93 19.93 0 0 1 -3.15-17.93l2.39-7.74a3 3 0 0 0 -.6-2.86l-6-6.84a6.07 6.07 0 0 1 0-8 1.63 1.63 0 0 1 2.37-.11l11 10.51a17 17 0 0 1 5.31 11.48l.19 4a5.82 5.82 0 0 0 2.15 4.22l4.72 3.8z" fill="#fbc4ab"/><path d="m87.93 65.81-2.51-.62a3.63 3.63 0 0 1 -2.61-2.48l-1.58-5.18a3.54 3.54 0 0 0 -1.06-1.65l-10.71-9.5a1.53 1.53 0 0 1 -.18-2.12 1.65 1.65 0 0 1 2.38-.13l11 10.52a17 17 0 0 1 5.27 11.16z" fill="#fbe7dd"/><path d="m95 78.12-17.19 11-1.19-1.52a19.94 19.94 0 0 1 -3.14-17.93l2.4-7.74a3 3 0 0 0 -.61-2.86l2.19 2.5a6 6 0 0 1 1.48 4.28l-.39 7.2a3.17 3.17 0 0 0 3.45 3.35l2-.14a3.23 3.23 0 0 0 2.74-1.94l1.47-3.4a5.78 5.78 0 0 0 2 3.34c.12.08-.21-.15 4.79 3.86z" fill="#fb9c88"/><path d="m77.79 90.14a1 1 0 0 1 -.79-.39l-1.18-1.56a21 21 0 0 1 -3.31-18.83l2.4-7.73a2 2 0 0 0 -.41-1.92l-6-6.83a7.12 7.12 0 0 1 0-9.3 2.64 2.64 0 0 1 3.81-.18l11 10.51a18 18 0 0 1 5.56 12.14l.19 4a4.82 4.82 0 0 0 1.78 3.49l4.72 3.81a1 1 0 1 1 -1.26 1.56l-4.72-3.82a6.83 6.83 0 0 1 -2.52-5l-.19-4a15.91 15.91 0 0 0 -4.87-10.73c-12-11.46-11.14-10.72-11.52-10.69a.67.67 0 0 0 -.45.22 5.1 5.1 0 0 0 0 6.67l6 6.84a4 4 0 0 1 .81 3.82l-2.42 7.78a19 19 0 0 0 3 17l1.18 1.56a1 1 0 0 1 -.81 1.58z" fill="#302d3d"/><path d="m73.05 80.9a1 1 0 0 1 -1-.84c-1.84-11.34-1.71-10.55-2.17-13.5a1 1 0 1 1 2-.31c.45 2.88.21 1.33 2.18 13.49a1 1 0 0 1 -1.01 1.16z" fill="#302d3d"/><path d="m23.52 60.63v-2.43a2.2 2.2 0 0 0 -2.2-2.2h-18.12a2.2 2.2 0 0 0 -2.2 2.2v17.58a2.2 2.2 0 0 0 2.2 2.22h18.12a2.2 2.2 0 0 0 2.2-2.2v-6.19l7.42-9z" fill="#49d293"/><path d="m4 73.69v-13.4a1.3 1.3 0 0 1 1.3-1.29h13.92a1.3 1.3 0 0 1 1.3 1.29v2.05a1.29 1.29 0 0 0 1.29 1.29 1.29 1.29 0 0 1 1 2.12c-2.12 2.57-2.29 2.63-2.29 3.25v4.69a1.3 1.3 0 0 1 -1.3 1.3h-13.92a1.3 1.3 0 0 1 -1.3-1.3z" fill="#8af0b1"/><path d="m21.32 79h-18.12a3.21 3.21 0 0 1 -3.2-3.22v-17.58a3.2 3.2 0 0 1 3.2-3.2h18.12a3.2 3.2 0 0 1 3.2 3.2v1.43h6.42a1 1 0 0 1 .77 1.64l-7.19 8.73v5.81a3.21 3.21 0 0 1 -3.2 3.19zm-18.12-22a1.2 1.2 0 0 0 -1.2 1.2v17.58a1.21 1.21 0 0 0 1.2 1.22h18.12a1.21 1.21 0 0 0 1.2-1.21v-6.18c0-.5-.28 0 6.29-8h-5.29a1 1 0 0 1 -1-1v-2.41a1.2 1.2 0 0 0 -1.2-1.2z" fill="#302d3d"/><path d="m23.52 33.85v2.44a2.21 2.21 0 0 1 -2.2 2.2h-18.12a2.21 2.21 0 0 1 -2.2-2.2v-17.59a2.21 2.21 0 0 1 2.2-2.2h18.12a2.21 2.21 0 0 1 2.2 2.2v6.18l7.42 9z" fill="#ffa946"/><path d="m4 34.19v-13.39a1.3 1.3 0 0 1 1.3-1.3h13.92a1.3 1.3 0 0 1 1.3 1.3c0 5.13-.1 5 .29 5.51l2 2.42a1.29 1.29 0 0 1 -1 2.12 1.3 1.3 0 0 0 -1.29 1.3v2a1.3 1.3 0 0 1 -1.3 1.3h-13.92a1.3 1.3 0 0 1 -1.3-1.26z" fill="#ffe06e"/><path d="m21.32 39.49h-18.12a3.21 3.21 0 0 1 -3.2-3.2v-17.59a3.21 3.21 0 0 1 3.2-3.2h18.12a3.21 3.21 0 0 1 3.2 3.2v5.82l7.19 8.7a1 1 0 0 1 -.77 1.63h-6.42v1.44a3.21 3.21 0 0 1 -3.2 3.2zm-18.12-21.99a1.2 1.2 0 0 0 -1.2 1.2v17.59a1.2 1.2 0 0 0 1.2 1.2h18.12a1.2 1.2 0 0 0 1.2-1.2v-2.44a1 1 0 0 1 1-1h5.29c-6.55-7.92-6.29-7.46-6.29-8v-6.15a1.2 1.2 0 0 0 -1.2-1.2z" fill="#302d3d"/><path d="m17.79 63.42h-11.09a1 1 0 0 1 0-2h11.09a1 1 0 1 1 0 2z" fill="#302d3d"/><path d="m17.79 68h-11.09a1 1 0 0 1 0-2h11.09a1 1 0 1 1 0 2z" fill="#302d3d"/><path d="m17.79 72.56h-11.09a1 1 0 0 1 0-2h11.09a1 1 0 0 1 0 2z" fill="#302d3d"/><path d="m6.33 28.49h-.19a1 1 0 1 1 0-2h.19a1 1 0 1 1 0 2z" fill="#302d3d"/><path d="m12.14 28.49h-.2a1 1 0 0 1 0-2h.2a1 1 0 0 1 0 2z" fill="#302d3d"/><path d="m18.35 28.49h-.2a1 1 0 0 1 0-2h.2a1 1 0 0 1 0 2z" fill="#302d3d"/></g></svg>